<svg width="1378" height="276" viewBox="0 0 1378 276" fill="none" xmlns="http://www.w3.org/2000/svg">
<path d="M144 108.019H228.048C267.474 108.019 306.359 98.888 341.623 81.3497C350.066 77.1507 360 83.2575 360 92.6469V108.019C360 187.125 295.529 251.253 216 251.253H115.354C106.049 251.253 101.396 251.253 96.8079 251.545C80.6758 252.571 64.8325 256.291 49.9423 262.55C45.7073 264.33 41.5458 266.399 33.2228 270.539L32.1994 271.048C26.8048 273.731 24.1075 275.072 21.9898 275.551C12.4097 277.717 2.85307 271.842 0.516488 262.35C0 260.252 0 257.252 0 251.253C0 172.147 64.471 108.019 144 108.019Z" fill="#018BD9"/>
<path d="M250.364 0C289.291 0 323.041 22.5053 339.569 55.3987C340.095 56.7884 340.243 59.0647 339.415 61.6854C338.621 64.1965 337.278 65.9234 336.089 66.7874C301.934 83.3656 264.316 92 226.167 92H170.357C159.793 92 158.011 91.7036 156.298 90.6381C155.902 90.3923 154.978 89.6035 153.975 88.275C152.973 86.9465 152.464 85.8369 152.333 85.3864C151.726 83.2887 151.794 82.2104 153.866 74.5168C165.435 31.5654 204.268 0 250.364 0Z" fill="#FFAD0D"/>
<path d="M500.001 218C490.8 218 482.334 216.674 474.6 214.022C467 211.37 460.4 207.26 454.8 201.691C449.2 195.989 444.8 188.63 441.6 179.613C438.533 170.597 437 159.724 437 146.994V143.017C437 130.818 438.6 120.409 441.8 111.79C445.133 103.039 449.6 95.8785 455.2 90.3094C460.934 84.7403 467.6 80.6298 475.2 77.9779C482.934 75.326 491.2 74 500.001 74C507.867 74 515.267 74.9282 522.201 76.7845C529.134 78.6409 535.201 81.558 540.401 85.5359C545.734 89.3812 550.001 94.3536 553.201 100.453C556.534 106.552 558.468 113.779 559.001 122.133H527.801C526.334 114.177 523.134 108.343 518.201 104.63C513.267 100.917 507.201 99.0608 500.001 99.0608C495.867 99.0608 491.867 99.7901 488 101.249C484.267 102.707 480.934 105.16 478 108.608C475.067 112.055 472.667 116.564 470.8 122.133C469.067 127.702 468.2 134.663 468.2 143.017V146.994C468.2 155.746 469.134 163.105 471 169.072C472.867 174.906 475.267 179.613 478.2 183.193C481.267 186.641 484.667 189.16 488.4 190.751C492.267 192.21 496.134 192.939 500.001 192.939C507.601 192.939 513.867 191.017 518.801 187.171C523.734 183.193 526.734 177.425 527.801 169.867H559.001C558.334 178.619 556.401 186.044 553.201 192.144C550.001 198.243 545.801 203.215 540.601 207.061C535.401 210.906 529.334 213.691 522.401 215.414C515.467 217.138 508.001 218 500.001 218Z" fill="#018BD9"/>
<path d="M583.04 76.3867H613.041V131.68H673.041V76.3867H703.041V215.613H673.041V156.343H613.041V215.613H583.04V76.3867Z" fill="#018BD9"/>
<path d="M812.595 187.171H760.795L750.195 215.613H720.995L772.995 76.3867H802.995L854.996 215.613H823.395L812.595 187.171ZM769.995 162.508H803.595L786.795 114.177L769.995 162.508Z" fill="#018BD9"/>
<path d="M892.019 101.05H847.019V76.3867H967.02V101.05H922.02V215.613H892.019V101.05Z" fill="#018BD9"/>
<path d="M1035.97 218C1017.44 218 1003.44 214.221 993.973 206.663C984.507 199.105 979.507 189.16 978.973 176.829H1008.97C1009.51 179.481 1010.31 181.801 1011.37 183.79C1012.44 185.779 1014.04 187.436 1016.17 188.762C1018.31 190.088 1020.97 191.149 1024.17 191.945C1027.37 192.608 1031.31 192.939 1035.97 192.939C1045.57 192.939 1052.44 191.68 1056.57 189.16C1060.84 186.508 1062.97 182.796 1062.97 178.022C1062.97 172.188 1060.17 167.812 1054.57 164.895C1049.11 161.845 1040.31 159.127 1028.17 156.74C1020.97 155.414 1014.57 153.691 1008.97 151.569C1003.37 149.315 998.64 146.53 994.773 143.215C990.907 139.768 987.973 135.657 985.973 130.884C983.973 126.11 982.973 120.409 982.973 113.779C982.973 107.812 984.173 102.376 986.573 97.4696C989.107 92.5635 992.64 88.3867 997.173 84.9392C1001.84 81.3591 1007.44 78.6409 1013.97 76.7845C1020.51 74.9282 1027.84 74 1035.97 74C1044.77 74 1052.37 74.9282 1058.77 76.7845C1065.17 78.6409 1070.51 81.2928 1074.77 84.7403C1079.17 88.1878 1082.51 92.2983 1084.77 97.0718C1087.04 101.845 1088.44 107.215 1088.97 113.182H1058.97C1058.04 108.409 1055.91 104.895 1052.57 102.641C1049.24 100.254 1043.71 99.0608 1035.97 99.0608C1028.11 99.0608 1022.31 100.32 1018.57 102.84C1014.84 105.359 1012.97 108.74 1012.97 112.983C1012.97 118.022 1015.51 122.066 1020.57 125.116C1025.77 128.033 1033.91 130.552 1044.97 132.674C1052.57 134.133 1059.31 135.923 1065.17 138.044C1071.17 140.166 1076.17 142.884 1080.17 146.199C1084.31 149.514 1087.44 153.624 1089.57 158.53C1091.84 163.304 1092.97 169.072 1092.97 175.834C1092.97 188.696 1087.97 198.972 1077.97 206.663C1068.11 214.221 1054.11 218 1035.97 218Z" fill="#018BD9"/>
<path d="M1118.01 76.3867H1148.01V135.061L1199.21 76.3867H1234.01L1181.81 133.47L1238.01 215.613H1202.81L1161.61 153.16L1148.01 167.878V215.613H1118.01V76.3867Z" fill="#018BD9"/>
<path d="M1299 162.508L1246 76.3867H1281.2L1314.6 132.276L1346 76.3867H1378L1329 162.508V215.613H1299V162.508Z" fill="#018BD9"/>
</svg>
