<svg width="360" height="276" viewBox="0 0 360 276" fill="none" xmlns="http://www.w3.org/2000/svg">
<path d="M144 108.019H228.048C267.474 108.019 306.359 98.888 341.623 81.3497C350.066 77.1507 360 83.2575 360 92.6469V108.019C360 187.125 295.529 251.253 216 251.253H115.354C106.049 251.253 101.396 251.253 96.8079 251.545C80.6758 252.571 64.8325 256.291 49.9423 262.55C45.7073 264.33 41.5458 266.399 33.2228 270.539L32.1994 271.048C26.8048 273.731 24.1075 275.072 21.9898 275.551C12.4097 277.717 2.85307 271.842 0.516488 262.35C0 260.252 0 257.252 0 251.253C0 172.147 64.471 108.019 144 108.019Z" fill="#018BD9"/>
<path d="M250.364 0C289.291 0 323.041 22.5053 339.569 55.3987C340.095 56.7884 340.243 59.0647 339.415 61.6854C338.621 64.1965 337.278 65.9234 336.089 66.7874C301.934 83.3656 264.316 92 226.167 92H170.357C159.793 92 158.011 91.7036 156.298 90.6381C155.902 90.3923 154.978 89.6035 153.975 88.275C152.973 86.9465 152.464 85.8369 152.333 85.3864C151.726 83.2887 151.794 82.2104 153.866 74.5168C165.435 31.5654 204.268 0 250.364 0Z" fill="#FFAD0D"/>
</svg>
