<svg width="500" height="347" viewBox="0 0 500 347" fill="none" xmlns="http://www.w3.org/2000/svg">
<path d="M309.453 287.716H144.919C136.635 287.716 129.919 281 129.919 272.716V244.162" stroke="url(#paint0_linear_125_109564)" stroke-width="25"/>
<path d="M215.328 91.7217H80.4263C72.142 91.7217 65.4263 98.4374 65.4263 106.722V135.276" stroke="url(#paint1_linear_125_109564)" stroke-width="25"/>
<path fill-rule="evenodd" clip-rule="evenodd" d="M451.044 0H265.956C257.144 0 250 7.44835 250 16.6364V166.364C250 175.552 257.144 183 265.956 183H451.044C459.856 183 467 175.552 467 166.364V16.6364C467 7.44835 459.856 0 451.044 0ZM286.813 18.7567H430.187H434.097C440.75 18.7567 446.143 23.948 446.143 30.3517V35.393V147.607V152.648C446.143 159.052 440.75 164.243 434.097 164.243H430.187H286.813H282.903C276.25 164.243 270.857 159.052 270.857 152.648V147.607V35.3931V30.3517C270.857 23.948 276.25 18.7567 282.903 18.7567H286.813Z" fill="url(#paint2_linear_125_109564)"/>
<path fill-rule="evenodd" clip-rule="evenodd" d="M451.044 0H265.956C257.144 0 250 7.44835 250 16.6364V166.364C250 175.552 257.144 183 265.956 183H451.044C459.856 183 467 175.552 467 166.364V16.6364C467 7.44835 459.856 0 451.044 0ZM286.813 18.7567H430.187H434.097C440.75 18.7567 446.143 23.948 446.143 30.3517V35.393V147.607V152.648C446.143 159.052 440.75 164.243 434.097 164.243H430.187H286.813H282.903C276.25 164.243 270.857 159.052 270.857 152.648V147.607V35.3931V30.3517C270.857 23.948 276.25 18.7567 282.903 18.7567H286.813Z" fill="url(#paint3_linear_125_109564)"/>
<rect x="1.08057" y="129.535" width="190.377" height="117.168" rx="15" fill="#70DB97"/>
<path d="M1.08057 144.535C1.08057 136.251 7.7963 129.535 16.0806 129.535H138.028C152.538 131.879 151.806 147.813 154.883 155.781C162.122 174.528 168.95 188.588 191.458 211.553V231.703C191.458 239.988 184.742 246.703 176.458 246.703H16.0806C7.7963 246.703 1.08057 239.988 1.08057 231.703V144.535Z" fill="#61BCA7"/>
<path d="M0.142578 144.535C0.142578 136.251 6.85831 129.535 15.1426 129.535H98.1355C109.398 130.473 112.167 138.909 113.259 144.07C116.432 159.062 118.308 177.34 144.098 212.49C164.677 240.539 177.859 246.703 177.859 246.703H15.1426C6.85832 246.703 0.142578 239.988 0.142578 231.703V144.535Z" fill="#077AC9"/>
<path d="M1.08057 144.535C1.08057 136.251 7.7963 129.535 16.0806 129.535H53.3492C66.7278 129.535 71.2666 141.069 72.0311 144.07C77.0438 163.748 72.3547 180.152 94.6023 211.338C111.779 235.416 122.997 246.703 122.997 246.703H16.0806C7.7963 246.703 1.08057 239.988 1.08057 231.703V144.535Z" fill="#1C59E3"/>
<path d="M0 144.214C0 136.107 6.57204 129.535 14.6791 129.535V129.535C23.5883 130.941 26.2581 137.883 27.3396 140.315C32.9665 152.969 30.0436 179.214 44.3123 211.295C54.6412 234.518 69.8642 246.641 69.8642 246.641H15C6.71572 246.641 0 239.926 0 231.641V144.214Z" fill="#2036FF"/>
<rect x="215.84" y="32.9893" width="190.377" height="117.168" rx="15" fill="#70DB97"/>
<path d="M215.84 47.9892C215.84 39.705 222.556 32.9893 230.84 32.9893H352.788C367.298 35.3326 366.566 51.2675 369.642 59.2349C376.882 77.9818 383.71 92.042 406.217 115.007V135.157C406.217 143.442 399.502 150.157 391.217 150.157H230.84C222.556 150.157 215.84 143.442 215.84 135.157V47.9892Z" fill="#61BCA7"/>
<path d="M214.903 47.9892C214.903 39.705 221.619 32.9893 229.903 32.9893H312.896C324.159 33.9266 326.927 42.3627 328.019 47.5238C331.192 62.5156 333.068 80.7938 358.858 115.944C379.437 143.993 392.619 150.157 392.619 150.157H229.903C221.619 150.157 214.903 143.442 214.903 135.157V47.9892Z" fill="#077AC9"/>
<path d="M215.84 47.9892C215.84 39.705 222.556 32.9893 230.84 32.9893H268.109C281.488 32.9893 286.026 44.5228 286.791 47.5238C291.804 67.2023 287.115 83.6059 309.362 114.792C326.539 138.87 337.757 150.157 337.757 150.157H230.84C222.556 150.157 215.84 143.442 215.84 135.157V47.9892Z" fill="#1C59E3"/>
<path d="M214.76 47.6683C214.76 39.5613 221.332 32.9893 229.439 32.9893V32.9893C238.348 34.3953 241.018 41.3366 242.099 43.7687C247.726 56.4229 244.803 82.6685 259.072 114.749C269.401 137.972 284.624 150.096 284.624 150.096H229.76C221.475 150.096 214.76 143.38 214.76 135.096V47.6683Z" fill="#2036FF"/>
<rect x="309.623" y="229.832" width="190.377" height="117.168" rx="15" fill="#70DB97"/>
<path d="M309.623 244.832C309.623 236.548 316.338 229.832 324.623 229.832H446.57C461.08 232.175 460.348 248.11 463.425 256.078C470.664 274.825 477.492 288.885 500 311.85V332C500 340.284 493.284 347 485 347H324.623C316.338 347 309.623 340.284 309.623 332V244.832Z" fill="#61BCA7"/>
<path d="M308.685 244.832C308.685 236.548 315.401 229.832 323.685 229.832H406.678C417.941 230.769 420.709 239.205 421.801 244.367C424.974 259.358 426.85 277.637 452.64 312.787C473.22 340.836 486.402 347 486.402 347H323.685C315.401 347 308.685 340.284 308.685 332V244.832Z" fill="#077AC9"/>
<path d="M309.623 244.832C309.623 236.548 316.338 229.832 324.623 229.832H361.891C375.27 229.832 379.809 241.366 380.573 244.367C385.586 264.045 380.897 280.449 403.144 311.635C420.321 335.713 431.539 347 431.539 347H324.623C316.338 347 309.623 340.284 309.623 332V244.832Z" fill="#1C59E3"/>
<path d="M308.542 244.511C308.542 236.404 315.114 229.832 323.221 229.832V229.832C332.13 231.238 334.8 238.179 335.882 240.611C341.508 253.266 338.586 279.511 352.854 311.592C363.183 334.815 378.406 346.938 378.406 346.938H323.542C315.258 346.938 308.542 340.223 308.542 331.938V244.511Z" fill="#2036FF"/>
<defs>
<linearGradient id="paint0_linear_125_109564" x1="265.077" y1="287.947" x2="138.721" y2="230.035" gradientUnits="userSpaceOnUse">
<stop offset="0.00312487" stop-color="#243AFC"/>
<stop offset="1" stop-color="#253AFB" stop-opacity="0.04"/>
</linearGradient>
<linearGradient id="paint1_linear_125_109564" x1="191.458" y1="92.0421" x2="76.7049" y2="144.828" gradientUnits="userSpaceOnUse">
<stop offset="0.00312487" stop-color="#243AFC"/>
<stop offset="1" stop-color="#253AFB" stop-opacity="0.04"/>
</linearGradient>
<linearGradient id="paint2_linear_125_109564" x1="485.641" y1="195.11" x2="252.517" y2="122.043" gradientUnits="userSpaceOnUse">
<stop stop-color="#2036FF"/>
<stop offset="1" stop-color="#2036FF" stop-opacity="0"/>
</linearGradient>
<linearGradient id="paint3_linear_125_109564" x1="358.5" y1="-2.67737e-07" x2="354.712" y2="150.27" gradientUnits="userSpaceOnUse">
<stop offset="0.330529" stop-color="#2036FF"/>
<stop offset="1" stop-color="#2036FF" stop-opacity="0"/>
</linearGradient>
</defs>
</svg>
