<svg xmlns="http://www.w3.org/2000/svg" xmlns:xlink="http://www.w3.org/1999/xlink" version="1.1" width="589.606pt" height="589.606pt" viewBox="0 0 589.606 589.606">
<path transform="matrix(1,0,0,-1,0,589.606)" d="M0 589.606H1229.1668V-639.5607H0V589.606Z" fill="#ffffff"/>
<path transform="matrix(1,0,0,-1,0,589.606)" d="M0 0H589.606V589.606H0V0Z" fill="#0077bd"/>
<path transform="matrix(1,0,0,-1,0,589.606)" d="M73.8861 287.8779C73.8861 164.7639 173.6891 64.9609 296.8031 64.9609 419.9161 64.9609 519.7201 164.7639 519.7201 287.8779 519.7201 410.9909 419.9161 510.7949 296.8031 510.7949 173.6891 510.7949 73.8861 410.9909 73.8861 287.8779Z" fill="#f8db2b"/>
<path transform="matrix(1,0,0,-1,0,589.606)" d="M136.0052 473.5327H321.4172C354.4292 473.5327 381.1912 446.7717 381.1912 413.7597V150.1957C381.1912 103.1207 343.0292 64.9607 295.9562 64.9607H205.2782L141.3772 91.4297C75.1452 160.2357 73.8862 219.3747 73.8862 307.4547V411.4137C73.8862 445.7207 101.6972 473.5327 136.0052 473.5327Z" fill="#373535"/>
<path transform="matrix(1,0,0,-1,0,589.606)" d="M137.0609 464.0864C83.3609 410.3854 83.3609 323.3204 137.0609 269.6204 190.7619 215.9204 277.8269 215.9204 331.5279 269.6204 385.2279 323.3204 385.2279 410.3854 331.5279 464.0864 277.8269 517.7864 190.7619 517.7864 137.0609 464.0864Z" fill="#fefefe"/>
<path transform="matrix(1,0,0,-1,0,589.606)" d="M295.8865 255.709C295.8865 236.123 311.7625 220.247 331.3485 220.247 350.9335 220.247 366.8105 236.123 366.8105 255.709 366.8105 275.294 350.9335 291.171 331.3485 291.171 311.7625 291.171 295.8865 275.294 295.8865 255.709Z" fill="#f8db2b"/>
<path transform="matrix(1,0,0,-1,0,589.606)" d="M141.3773 91.4297C176.6693 56.1377 233.8873 56.1377 269.1793 91.4297 304.4713 126.7207 304.4713 183.9397 269.1793 219.2317 233.8873 254.5237 176.6693 254.5237 141.3773 219.2317 106.0853 183.9397 106.0853 126.7207 141.3773 91.4297Z" fill="#f8db2b"/>
<path transform="matrix(1,0,0,-1,0,589.606)" d="M171.9705 322.5947C175.7045 326.9987 179.7095 330.3017 183.9865 332.5037 188.2635 334.7057 192.8665 335.8067 197.7965 335.8067 200.5515 335.8067 203.1565 335.4807 205.6125 334.8277 208.0675 334.1757 210.3735 333.2567 212.5315 332.0687 214.6875 330.8817 216.7125 329.4687 218.6065 327.8277 220.5005 326.1877 222.2715 324.3887 223.9215 322.4317L220.1425 318.6527C216.9705 322.1867 213.5455 324.8427 209.8665 326.6177 206.1875 328.3947 202.3185 329.2817 198.2585 329.2817 194.1445 329.2817 190.1895 328.3947 186.3925 326.6177 182.5955 324.8427 179.1305 322.1867 175.9935 318.6527L171.9705 322.5947Z" fill="#373535"/>
<path transform="matrix(1,0,0,-1,0,589.606)" d="M155.8133 365.1006H239.3573V341.4116H230.8003V354.9676H164.3713V341.4116H155.8133V365.1006Z" fill="#0077bd"/>
<path transform="matrix(1,0,0,-1,0,589.606)" d="M362.0237 374.9658 290.1927 344.1248V354.6258L362.0237 385.4228V374.9658Z" fill="#373535"/>
<path transform="matrix(1,0,0,-1,0,589.606)" d="M290.1194 322.5947C293.8534 326.9987 297.8574 330.3017 302.1354 332.5037 306.4124 334.7057 311.0154 335.8067 315.9454 335.8067 318.7004 335.8067 321.3054 335.4807 323.7614 334.8277 326.2164 334.1757 328.5224 333.2567 330.6804 332.0687 332.8364 330.8817 334.8614 329.4687 336.7554 327.8277 338.6484 326.1877 340.4204 324.3887 342.0694 322.4317L338.2914 318.6527C335.1194 322.1867 331.6944 324.8427 328.0154 326.6177 324.3364 328.3947 320.4674 329.2817 316.4074 329.2817 312.2934 329.2817 308.3384 328.3947 304.5414 326.6177 300.7444 324.8427 297.2784 322.1867 294.1424 318.6527L290.1194 322.5947Z" fill="#373535"/>
<path transform="matrix(1,0,0,-1,0,589.606)" d="M340.8187 193.8496C335.2747 187.1916 329.2887 182.2316 322.8607 178.9696 316.4327 175.7076 309.5097 174.0776 302.0907 174.0776 297.9597 174.0776 294.0607 174.5676 290.3917 175.5446 286.7217 176.5236 283.2567 177.8896 279.9957 179.6426 276.7347 181.3946 273.6837 183.4956 270.8437 185.9406 268.0047 188.3866 265.3607 191.0776 262.9157 194.0116L268.5817 199.7196C273.3377 194.3936 278.4877 190.3986 284.0317 187.7346 289.5757 185.0716 295.3917 183.7396 301.4797 183.7396 307.6217 183.7396 313.5467 185.0716 319.2537 187.7346 324.9607 190.3986 330.1787 194.3936 334.9077 199.7196L340.8187 193.8496Z" fill="#fefefe"/>
<path transform="matrix(1,0,0,-1,0,589.606)" d="M93.5531 231.542C85.4981 238.249 79.4981 245.491 75.5521 253.267 71.6071 261.043 69.6341 269.418 69.6341 278.394 69.6341 283.392 70.2261 288.109 71.4091 292.548 72.5931 296.987 74.2451 301.179 76.3661 305.125 78.4871 309.07 81.0271 312.76 83.9851 316.196 86.9451 319.632 90.1991 322.83 93.7501 325.789L100.6551 318.934C94.2111 313.18 89.3781 306.949 86.1561 300.242 82.9331 293.535 81.3221 286.499 81.3221 279.134 81.3221 271.703 82.9331 264.535 86.1561 257.631 89.3781 250.726 94.2111 244.413 100.6551 238.692L93.5531 231.542Z" fill="#f8db2b"/>
<path transform="matrix(1,0,0,-1,0,589.606)" d="M242.2503 490.0229C242.3053 491.6889 242.2083 493.2429 241.9583 494.6869 241.7083 496.1299 241.3133 497.3859 240.7713 498.4559 240.2303 499.5229 239.5433 500.3639 238.7103 500.9749 237.8773 501.5849 236.8923 501.8909 235.7533 501.8909 234.9483 501.8909 234.2613 501.7729 233.6923 501.5369 233.1243 501.3009 232.6093 501.0019 232.1523 500.6419 231.6933 500.2799 231.2503 499.8979 230.8193 499.4969 230.3893 499.0929 229.9303 498.7119 229.4443 498.3509 228.9593 497.9899 228.4043 497.6909 227.7793 497.4559 227.1543 497.2199 226.3983 497.1019 225.5103 497.1019 224.6493 497.1019 223.8103 497.2539 222.9903 497.5599 222.1723 497.8649 221.4433 498.3099 220.8043 498.8929 220.1663 499.4759 219.6523 500.1899 219.2633 501.0369 218.8753 501.8829 218.6813 502.8489 218.6813 503.9309 218.6813 505.2909 218.9933 506.5129 219.6173 507.5959 220.2423 508.6779 221.0893 509.5939 222.1573 510.3439 223.2273 511.0939 224.4483 511.6619 225.8223 512.0509 227.1963 512.4399 228.6333 512.6339 230.1323 512.6339 232.7133 512.6339 235.1433 512.1619 237.4193 511.2179 239.6953 510.2739 241.6803 508.8659 243.3743 506.9919 245.0663 505.1179 246.4063 502.7649 247.3933 499.9339 248.3783 497.1019 248.8713 493.7979 248.8713 490.0229H242.2503ZM191.4883 504.1809C191.4883 505.2359 191.6833 506.2219 192.0713 507.1379 192.4603 508.0539 192.9953 508.8449 193.6743 509.5109 194.3553 510.1769 195.1523 510.7039 196.0693 511.0939 196.9853 511.4819 197.9573 511.6769 198.9843 511.6769 200.0403 511.6769 201.0243 511.4819 201.9403 511.0939 202.8573 510.7039 203.6473 510.1769 204.3143 509.5109 204.9803 508.8449 205.5083 508.0539 205.8963 507.1379 206.2853 506.2219 206.4793 505.2359 206.4793 504.1809 206.4793 503.1259 206.2853 502.1469 205.8963 501.2459 205.5083 500.3429 204.9803 499.5519 204.3143 498.8719 203.6473 498.1909 202.8573 497.6569 201.9403 497.2689 201.0243 496.8789 200.0403 496.6859 198.9843 496.6859 197.9573 496.6859 196.9853 496.8789 196.0693 497.2689 195.1523 497.6569 194.3553 498.1909 193.6743 498.8719 192.9953 499.5519 192.4603 500.3429 192.0713 501.2459 191.6833 502.1469 191.4883 503.1259 191.4883 504.1809Z" fill="#373535"/>
<path transform="matrix(1,0,0,-1,0,589.606)" d="M262.9153 194.0117C257.3713 187.3547 251.3853 182.3947 244.9573 179.1327 238.5293 175.8707 231.6063 174.2407 224.1873 174.2407 220.0563 174.2407 216.1573 174.7297 212.4873 175.7077 208.8183 176.6867 205.3533 178.0527 202.0923 179.8047 198.8313 181.5577 195.7803 183.6577 192.9403 186.1037 190.1013 188.5497 187.4573 191.2407 185.0113 194.1747L190.6783 199.8817C195.4343 194.5567 200.5833 190.5617 206.1283 187.8977 211.6723 185.2347 217.4873 183.9027 223.5763 183.9027 229.7183 183.9027 235.6433 185.2347 241.3503 187.8977 247.0573 190.5617 252.2753 194.5567 257.0043 199.8817L262.9153 194.0117Z" fill="#373535"/>
<path transform="matrix(1,0,0,-1,0,589.606)" d="M239.358 398.136H273.038V390.538H239.358V398.136ZM239.358 413.566H273.038V405.968H239.358V413.566Z" fill="#f8db2b"/>
<path transform="matrix(1,0,0,-1,0,589.606)" d="M359.8753 299.9292 342.2663 314.7432 359.8753 329.5832 363.9253 325.4552 350.9913 314.7952 363.9253 304.0572 359.8753 299.9292Z" fill="#0077bd"/>
<path transform="matrix(1,0,0,-1,0,589.606)" d="M198.2586 327.4687C199.2856 327.4687 200.2376 327.2797 201.1176 326.9007 201.9976 326.5217 202.7616 326.0077 203.4096 325.3607 204.0566 324.7127 204.5646 323.9487 204.9306 323.0697 205.2976 322.1897 205.4806 321.2477 205.4806 320.2467 205.4806 319.2687 205.2976 318.3457 204.9306 317.4787 204.5646 316.6107 204.0566 315.8527 203.4096 315.2057 202.7616 314.5577 201.9976 314.0447 201.1176 313.6657 200.2376 313.2867 199.2856 313.0977 198.2586 313.0977 197.2806 313.0977 196.3636 313.2867 195.5086 313.6657 194.6536 314.0447 193.9076 314.5577 193.2726 315.2057 192.6366 315.8527 192.1356 316.6107 191.7696 317.4787 191.4026 318.3457 191.2186 319.2687 191.2186 320.2467 191.2186 321.2477 191.4026 322.1897 191.7696 323.0697 192.1356 323.9487 192.6366 324.7127 193.2726 325.3607 193.9076 326.0077 194.6536 326.5217 195.5086 326.9007 196.3636 327.2797 197.2806 327.4687 198.2586 327.4687Z" fill="#373535"/>
<path transform="matrix(1,0,0,-1,0,589.606)" d="M103.2752 224.6416C104.6982 224.5946 106.0272 224.6776 107.2612 224.8906 108.4942 225.1046 109.5682 225.4426 110.4822 225.9056 111.3942 226.3686 112.1122 226.9546 112.6342 227.6656 113.1552 228.3776 113.4172 229.2206 113.4172 230.1936 113.4172 230.8806 113.3162 231.4676 113.1152 231.9536 112.9132 232.4406 112.6582 232.8796 112.3492 233.2706 112.0412 233.6626 111.7142 234.0416 111.3712 234.4106 111.0262 234.7776 110.7012 235.1686 110.3922 235.5836 110.0842 235.9986 109.8282 236.4736 109.6272 237.0076 109.4252 237.5406 109.3252 238.1876 109.3252 238.9476 109.3252 239.6826 109.4552 240.4006 109.7162 241.1006 109.9772 241.7996 110.3572 242.4216 110.8552 242.9676 111.3532 243.5136 111.9642 243.9526 112.6872 244.2856 113.4112 244.6176 114.2352 244.7836 115.1612 244.7836 116.3232 244.7836 117.3672 244.5156 118.2932 243.9826 119.2172 243.4486 120.0012 242.7246 120.6412 241.8116 121.2812 240.8976 121.7672 239.8546 122.1002 238.6806 122.4322 237.5056 122.5982 236.2786 122.5982 234.9966 122.5982 232.7896 122.1942 230.7156 121.3882 228.7696 120.5812 226.8246 119.3712 225.1276 117.7582 223.6806 116.1452 222.2346 114.1342 221.0886 111.7272 220.2466 109.3182 219.4056 106.5012 218.9836 103.2752 218.9836V224.6416Z" fill="#fefefe"/>
<path transform="matrix(1,0,0,-1,0,589.606)" d="M295.639 254.8398V251.8348C295.639 250.3328 295.467 248.9798 295.123 247.7748 294.778 246.5688 294.2 245.5278 293.386 244.6518 292.572 243.7768 291.485 243.1028 290.123 242.6328 288.762 242.1638 287.063 241.9288 285.029 241.9288H277.188C272.556 241.9288 269.12 241.1228 266.882 239.5108 264.644 237.8998 263.627 235.9048 262.915 234.1348 262.11 236.0308 260.795 238.2728 259.089 239.5578 257.996 240.3808 256.584 240.9508 254.91 241.3418 253.236 241.7338 251.225 241.9288 248.877 241.9288H236.67C234.698 241.9288 233.048 242.1638 231.717 242.6328 230.387 243.1028 229.307 243.7768 228.477 244.6518 227.648 245.5278 227.061 246.5688 226.717 247.7748 226.372 248.9798 226.201 250.3328 226.201 251.8348V254.8398H217.374V250.8968C217.374 247.4848 217.789 244.5578 218.618 242.1158 219.448 239.6748 220.677 237.6718 222.304 236.1078 223.931 234.5428 225.958 233.3928 228.384 232.6558 230.809 231.9208 233.635 231.5528 236.858 231.5528H249.206C250.833 231.5528 252.234 231.3888 253.408 231.0608 254.582 230.7318 255.544 230.1998 256.295 229.4638 257.047 228.7288 257.602 227.7668 257.962 226.5758 258.083 226.1758 258.182 225.7438 258.263 225.2868H267.647C268.005 227.0898 268.719 228.4678 269.794 229.4168 271.405 230.8418 273.823 231.5528 277.047 231.5528H284.935C291.726 231.5528 296.68 233.1498 299.794 236.3418 302.909 239.5338 304.466 244.3868 304.466 250.8968V254.8398H295.639Z" fill="#0077bd"/>
</svg>
